<svg xmlns="http://www.w3.org/2000/svg" xmlns:xlink="http://www.w3.org/1999/xlink" viewBox="0,0,256,256" width="50px"
    height="50px" fill-rule="nonzero">
    <g fill="#000000" fill-rule="nonzero" stroke="none" stroke-width="1" stroke-linecap="butt" stroke-linejoin="miter"
        stroke-miterlimit="10" stroke-dasharray="" stroke-dashoffset="0" font-family="none" font-weight="none"
        font-size="none" text-anchor="none" style="mix-blend-mode: normal">
        <g transform="translate(256.02916,0.04743) rotate(90) scale(5.12,5.12)">
            <path
                d="M34.80859,3c-7.48828,0 -11.14062,5.39844 -13.23437,9.46484l-8.05469,15.61328c-0.57422,1.01563 -0.66797,2.21484 -0.30078,3.28516l-2.55078,2.55859c-2.21094,-1.42578 -5.27734,-1.03125 -6.85547,1.34375c-1,1.50391 -1.07812,3.44922 -0.25,5.03516c0.58203,1.11719 1.5,1.87891 2.49219,2.28906c0.16797,1.45703 0.98828,2.87891 2.42969,3.73828c1.59766,0.94922 3.61719,0.91016 5.17578,-0.08984c2.21094,-1.41797 2.76563,-4.10937 1.78906,-6.26953l3.03125,-3.03125c0.03125,0.00391 0.0625,0.01563 0.09766,0.01953c0.19531,0.03125 0.38672,0.04297 0.58203,0.04297c0.88281,0 1.73047,-0.28516 2.44531,-0.82422c0.57031,-0.33984 5.83984,-3.44531 8.0625,-4.17969l4.65234,-1.6875c2.49609,-0.90625 4.81641,-2.17969 6.70703,-3.6875c5.39063,-4.3125 5.97266,-9.49219 5.97266,-11.51562c0,-6.67578 -5.46875,-12.10547 -12.19141,-12.10547zM14.28125,33.13281l1.57422,2.17969c0.19922,0.28125 0.43359,0.51563 0.69141,0.73047l-3.56641,3.56641l0.47656,0.68359c0.9375,1.34375 0.69531,3.25391 -0.875,4.26172c-0.90625,0.58203 -2.15234,0.60156 -3.07422,0.05469c-0.92187,-0.55078 -1.38281,-1.37891 -1.47656,-2.26953v-0.00391c-0.07812,-0.71094 -0.54297,-1.31641 -1.19531,-1.58594h-0.00391c-0.60937,-0.24609 -1.125,-0.66797 -1.49609,-1.375c-0.48828,-0.93359 -0.43359,-2.13672 0.14063,-3c1.12109,-1.6875 3.32031,-1.82031 4.64453,-0.49609l0.70703,0.70703z">
            </path>
        </g>
    </g>
</svg>