<svg xmlns="http://www.w3.org/2000/svg" xmlns:xlink="http://www.w3.org/1999/xlink" viewBox="0,0,256,256" width="50px" height="50px" fill-rule="nonzero"><g transform="translate(25.6,25.6) scale(0.8,0.8)"><g fill="#000000" fill-rule="nonzero" stroke="none" stroke-width="1" stroke-linecap="butt" stroke-linejoin="miter" stroke-miterlimit="10" stroke-dasharray="" stroke-dashoffset="0" font-family="none" font-weight="none" font-size="none" text-anchor="none" style="mix-blend-mode: normal"><g transform="scale(5.12,5.12)"><path d="M47.99609,20.37891l0.00391,-14.87891c0,-1.92969 -1.57031,-3.5 -3.5,-3.5l-14.875,0.00391l-0.62891,-0.00391c-1.29687,0 -2.53125,0.07422 -3.42187,0.96484l-22.72656,22.72656c-0.54687,0.54297 -0.84766,1.26953 -0.84766,2.04297c0,0.77344 0.30078,1.5 0.84766,2.04297l17.375,17.375c0.54297,0.54688 1.26953,0.84766 2.04297,0.84766c0.76953,0 1.5,-0.30078 2.04297,-0.84766l22.72656,-22.72656c0.97656,-0.97266 0.96875,-2.375 0.96484,-3.72656zM39,14c-1.65625,0 -3,-1.34375 -3,-3c0,-1.65625 1.34375,-3 3,-3c1.65625,0 3,1.34375 3,3c0,1.65625 -1.34375,3 -3,3z"></path></g></g></g></svg>