<svg xmlns="http://www.w3.org/2000/svg" xmlns:xlink="http://www.w3.org/1999/xlink" viewBox="0,0,256,256" width="50px"
    height="50px" fill-rule="nonzero">
    <g fill="#000000" fill-rule="nonzero" stroke="none" stroke-width="1" stroke-linecap="butt" stroke-linejoin="miter"
        stroke-miterlimit="10" stroke-dasharray="" stroke-dashoffset="0" font-family="none" font-weight="none"
        font-size="none" text-anchor="none" style="mix-blend-mode: normal">
        <g transform="translate(256.02845,0.05539) rotate(90) scale(5.12,5.12)">
            <path
                d="M34.80859,3c-3.64453,0 -6.48047,1.33984 -8.60156,3.19141c-2.12109,1.85156 -3.5625,4.19531 -4.63281,6.26953l-8.05469,15.61719v0.00391c-0.57031,1.01563 -0.66797,2.21094 -0.30078,3.28125l-2.55469,2.55859c-2.21094,-1.42578 -5.27734,-1.03125 -6.85547,1.34375c-1,1.50391 -1.07422,3.44922 -0.24609,5.03516c0.58203,1.11719 1.49609,1.875 2.49219,2.28906c0.16797,1.45703 0.98828,2.87891 2.42969,3.73828c1.59766,0.94922 3.61719,0.91406 5.17578,-0.08984c2.21094,-1.41797 2.76172,-4.10937 1.78906,-6.26953l3.03516,-3.03906c1.08594,0.17969 2.24609,-0.06641 3.17578,-0.79687l-0.10547,0.07031c0,0 1.44531,-0.86328 3.19531,-1.82422c1.75,-0.96094 3.85156,-2.03125 4.89063,-2.375l0.01172,-0.00391l4.66797,-1.69141c2.35156,-0.85547 4.68359,-2.07422 6.70703,-3.69141c4.82813,-3.86328 5.97266,-8.60547 5.97266,-11.50781c0,-6.67969 -5.47266,-12.10937 -12.19141,-12.10937zM34.80859,5c5.64453,0 10.19141,4.51953 10.19141,10.10938c0,2.39063 -0.89062,6.48438 -5.22266,9.94531c-1.81641,1.45313 -3.96484,2.58594 -6.13672,3.37109l-4.62891,1.67969c-1.40234,0.46484 -3.44531,1.53906 -5.22656,2.51953c-1.78125,0.98438 -3.25391,1.85938 -3.25391,1.85938l-0.05859,0.03516l-0.05078,0.03906c-0.92969,0.73047 -2.25781,0.54297 -2.94531,-0.41406l-2.09766,-2.91016c-0.46094,-0.64453 -0.50781,-1.48047 -0.11719,-2.16797l0.00781,-0.01953l8.08203,-15.66797c1.01563,-1.96484 2.34375,-4.08594 4.16797,-5.68359c1.82813,-1.59375 4.125,-2.69531 7.28906,-2.69531zM14.28125,33.12891l1.57422,2.18359c0.19922,0.28125 0.4375,0.51563 0.69141,0.72656l-3.56641,3.57031l0.47656,0.68359c0.9375,1.34766 0.69141,3.25391 -0.87891,4.26172c-0.90234,0.57813 -2.14844,0.60156 -3.07031,0.05469c-0.92578,-0.55078 -1.38281,-1.37891 -1.48047,-2.27344c-0.07812,-0.71094 -0.53906,-1.31641 -1.19531,-1.58594c-0.60937,-0.25 -1.12891,-0.66797 -1.49609,-1.375c-0.48828,-0.93359 -0.4375,-2.13672 0.14063,-3c1.11719,-1.6875 3.31641,-1.82031 4.64453,-0.49609l0.70703,0.70703z">
            </path>
        </g>
    </g>
</svg>