<svg xmlns="http://www.w3.org/2000/svg" xmlns:xlink="http://www.w3.org/1999/xlink" viewBox="0,0,256,256" width="50px" height="50px" fill-rule="nonzero"><g transform="translate(25.6,25.6) scale(0.8,0.8)"><g fill="#000000" fill-rule="nonzero" stroke="none" stroke-width="1" stroke-linecap="butt" stroke-linejoin="miter" stroke-miterlimit="10" stroke-dasharray="" stroke-dashoffset="0" font-family="none" font-weight="none" font-size="none" text-anchor="none" style="mix-blend-mode: normal"><g transform="scale(5.12,5.12)"><path d="M28.625,2c-0.33984,0.00391 -0.68359,0.01953 -1.03125,0.0625c-0.69141,0.08984 -1.44922,0.32422 -2.03125,0.90625l-22.71875,22.71875c-1.12109,1.12109 -1.12109,2.97266 0,4.09375l17.375,17.375c1.12109,1.12109 2.97266,1.12109 4.09375,0l22.71875,-22.71875c0.57813,-0.57812 0.81641,-1.34375 0.90625,-2.03125c0.08984,-0.6875 0.0625,-1.36719 0.0625,-2.03125v-14.875c0,-1.92187 -1.57812,-3.5 -3.5,-3.5h-14.875c-0.32422,0 -0.66016,-0.00391 -1,0zM28.65625,4c0.29297,-0.00781 0.62891,0 0.96875,0h14.875c0.83984,0 1.5,0.66016 1.5,1.5v14.875c0,0.69531 -0.00391,1.32422 -0.0625,1.78125c-0.05859,0.45703 -0.15234,0.68359 -0.3125,0.84375l-22.71875,22.75c-0.35547,0.35547 -0.92578,0.35547 -1.28125,0l-0.125,-0.15625l-17.25,-17.21875c-0.35547,-0.35547 -0.35547,-0.92578 0,-1.28125l22.75,-22.71875c0.15625,-0.15625 0.41406,-0.25391 0.875,-0.3125c0.23047,-0.03125 0.48828,-0.05469 0.78125,-0.0625zM39,7c-2.19922,0 -4,1.80078 -4,4c0,2.19922 1.80078,4 4,4c2.19922,0 4,-1.80078 4,-4c0,-2.19922 -1.80078,-4 -4,-4zM39,9c1.11719,0 2,0.88281 2,2c0,1.11719 -0.88281,2 -2,2c-1.11719,0 -2,-0.88281 -2,-2c0,-1.11719 0.88281,-2 2,-2z"></path></g></g></g></svg>