<svg xmlns="http://www.w3.org/2000/svg"  viewBox="0 0 50 50" width="50px" height="50px"><path d="M 11.841797 4.03125 C 10.799579 4.0107353 9.75981 4.3847213 8.9746094 5.1699219 C 8.4458616 5.6986697 8.1713069 6.3573653 8.0117188 7.0351562 C 7.3335672 7.1950375 6.6752322 7.4692991 6.1464844 7.9980469 C 4.5760832 9.5684481 4.6480445 12.159763 6.2363281 13.748047 C 7.5702399 15.081959 9.5793791 15.276018 11.128906 14.396484 L 12.591797 15.859375 C 11.571128 17.318703 10.966797 19.088287 10.966797 21 C 10.966797 21.335 10.992297 21.668 11.029297 22 L 7.9667969 22 C 7.6847969 22 7.4165625 22.119125 7.2265625 22.328125 C 7.0375625 22.536125 6.9437031 22.814703 6.9707031 23.095703 L 9.171875 46.095703 C 9.220875 46.607703 9.6500156 47 10.166016 47 L 37.765625 47 C 38.281625 47 38.711719 46.608703 38.761719 46.095703 L 40.962891 23.095703 C 40.988891 22.815703 40.895078 22.535172 40.705078 22.326172 C 40.515078 22.118172 40.248797 22 39.966797 22 L 36.914062 22 C 36.783758 20.708222 36.402962 19.489302 35.822266 18.388672 L 37.816406 16.394531 C 39.366157 17.275315 41.374547 17.080531 42.708984 15.746094 C 44.297268 14.15781 44.371179 11.568448 42.800781 9.9980469 C 42.271684 9.4680261 41.612207 9.1945 40.933594 9.0351562 C 40.773967 8.3575101 40.5013 7.6985655 39.972656 7.1699219 C 39.187456 6.3847213 38.147687 6.0107353 37.105469 6.03125 C 36.063251 6.051765 35.018751 6.4675769 34.224609 7.2617188 C 32.890844 8.5954842 32.695032 10.602879 33.574219 12.152344 L 31.566406 14.160156 C 30.158783 13.422967 28.559965 13 26.859375 13 C 26.596375 13 26.335219 13.027828 26.074219 13.048828 C 24.641219 13.219828 22.742016 13.943172 21.916016 16.451172 C 21.777016 16.871172 21.386797 17.140625 20.966797 17.140625 C 20.862797 17.140625 20.756344 17.123844 20.652344 17.089844 C 20.128344 16.916844 19.842625 16.351172 20.015625 15.826172 C 20.496625 14.366172 21.349797 13.198047 22.466797 12.373047 C 21.660797 12.133047 20.823797 12 19.966797 12 C 19.131375 12 18.324816 12.123827 17.556641 12.337891 L 15.373047 10.154297 C 16.253197 8.6046611 16.056829 6.5958914 14.722656 5.2617188 C 13.928514 4.4675769 12.884015 4.0517647 11.841797 4.03125 z M 11.818359 6.0195312 C 12.344675 6.0322158 12.880735 6.247923 13.308594 6.6757812 C 14.16431 7.5314977 14.173986 8.8221043 13.400391 9.5957031 A 1.0001 1.0001 0 0 0 13.400391 11.009766 L 15.554688 13.164062 C 14.96273 13.498697 14.415313 13.900442 13.916016 14.355469 L 11.984375 12.423828 A 1.0001 1.0001 0 0 0 10.570312 12.423828 C 9.7967142 13.197427 8.506107 13.187751 7.6503906 12.332031 C 6.7946743 11.476315 6.7869484 10.187661 7.5605469 9.4140625 C 7.9157403 9.0588691 8.3718486 8.8810472 8.8730469 8.8652344 A 1.0001 1.0001 0 0 0 9.8417969 7.8964844 C 9.8576379 7.3944018 10.033478 6.9391778 10.388672 6.5839844 C 10.775471 6.197185 11.292043 6.0068467 11.818359 6.0195312 z M 37.128906 8.0195312 C 37.655222 8.0068467 38.171794 8.1971851 38.558594 8.5839844 C 38.913787 8.9391778 39.089628 9.3944018 39.105469 9.8964844 A 1.0001 1.0001 0 0 0 40.074219 10.865234 C 40.57633 10.881074 41.031393 11.058089 41.384766 11.412109 A 1.0001 1.0001 0 0 0 41.386719 11.412109 C 42.160318 12.185708 42.150641 13.476315 41.294922 14.332031 C 40.439206 15.187748 39.148599 15.197424 38.375 14.423828 A 1.0001 1.0001 0 0 0 36.960938 14.423828 L 34.685547 16.697266 C 34.260804 16.181835 33.786309 15.709921 33.267578 15.287109 L 35.546875 13.009766 A 1.0001 1.0001 0 0 0 35.546875 11.595703 C 34.773276 10.822104 34.782953 9.5314977 35.638672 8.6757812 C 36.06653 8.2479231 36.60259 8.0322158 37.128906 8.0195312 z M 9.0664062 24 L 38.865234 24 L 37.621094 37 L 28 37 C 27.448 37 27 37.448 27 38 L 27 45 L 20 45 L 20 38 C 20 37.448 19.552 37 19 37 L 10.308594 37 L 9.0664062 24 z M 34.566406 27 C 32.710406 26.977 31.202297 27.463984 30.154297 28.208984 C 29.086297 28.968984 28.495047 29.995484 28.498047 31.021484 C 28.503047 32.543484 29.811844 34.007047 32.839844 33.998047 C 33.591844 33.993047 34.254422 33.923172 34.857422 33.826172 C 35.033422 33.799172 35.205141 33.768328 35.369141 33.736328 L 35.722656 32.320312 C 35.135656 32.504312 34.393828 32.658156 33.798828 32.660156 C 32.185828 32.665156 31.103562 31.764984 31.101562 30.583984 C 31.099563 29.954984 31.374094 29.401094 31.871094 28.996094 C 32.403094 28.563094 33.188922 28.302734 34.169922 28.302734 C 34.946922 28.302734 35.400938 28.503969 35.710938 28.792969 C 35.772937 28.849969 35.830859 28.908703 35.880859 28.970703 L 36.132812 28.970703 L 36.628906 27.300781 C 36.119906 27.141781 35.363406 27.008 34.566406 27 z M 22.279297 27.0625 L 18.457031 27.068359 L 18.361328 27.429688 L 18.339844 27.519531 C 18.599844 27.536531 18.960062 27.759391 18.664062 28.025391 C 18.625062 28.057391 15.591797 30.287109 15.591797 30.287109 L 15.615234 30.207031 L 16.246094 28.011719 C 16.379094 27.572719 16.869141 27.519531 16.869141 27.519531 L 16.990234 27.066406 L 13.339844 27.068359 L 13.246094 27.429688 L 13.222656 27.519531 C 13.397656 27.562531 13.895656 27.656156 13.722656 28.285156 C 12.504656 32.518156 12.642547 32.099078 12.560547 32.330078 C 12.287547 33.333078 11.878812 33.471094 11.632812 33.496094 C 11.578812 33.501094 11.532047 33.502906 11.498047 33.503906 L 11.449219 33.693359 L 11.373047 33.992188 L 14.705078 33.992188 L 15.191406 33.992188 L 15.320312 33.494141 C 15.320312 33.494141 14.713125 33.380937 14.828125 32.960938 C 14.887125 32.749938 15.040781 32.213234 15.175781 31.740234 C 15.306781 31.281234 15.423828 30.878906 15.423828 30.878906 C 16.085828 31.899906 16.237109 32.026078 17.037109 33.080078 C 17.772109 34.056078 18.557078 34.009047 20.455078 33.998047 C 20.610078 33.997047 20.771359 33.996094 20.943359 33.996094 L 21.068359 33.507812 C 20.586359 33.508813 20.268172 33.170656 20.076172 32.972656 C 19.882172 32.773656 18.199219 30.255859 18.199219 30.255859 L 21.173828 27.966797 L 21.273438 27.890625 C 21.406437 27.783625 21.530625 27.707344 21.640625 27.652344 C 21.956625 27.496344 22.160156 27.517578 22.160156 27.517578 L 22.279297 27.0625 z M 22.902344 27.064453 L 22.806641 27.427734 L 22.783203 27.515625 C 22.783203 27.515625 23.499297 27.59325 23.279297 28.28125 L 21.646484 33.994141 L 24.425781 34 L 24.912109 34 L 25.037109 33.509766 C 25.037109 33.509766 24.425937 33.368219 24.585938 32.824219 C 24.593937 32.790219 24.823937 31.978234 24.960938 31.490234 C 25.021937 31.279234 25.066406 31.128906 25.066406 31.128906 L 26.5625 31.128906 C 26.8075 31.128906 26.993672 31.170609 27.138672 31.224609 C 27.437672 31.334609 27.554688 31.503906 27.554688 31.503906 L 27.988281 29.804688 L 25.466797 29.804688 L 25.738281 28.835938 L 25.841797 28.472656 L 28.03125 28.470703 C 28.24925 28.470703 28.428781 28.546484 28.550781 28.646484 C 28.653781 28.731484 28.716797 28.832922 28.716797 28.919922 L 28.966797 28.919922 L 29.447266 27.064453 L 22.902344 27.064453 z"/></svg>